<svg xmlns="http://www.w3.org/2000/svg" viewBox="0 0 24 24"><path d="M21.736 7.624l-.994-6.96a.704.704 0 0 0-1.194-.398L18.1 1.715A11.875 11.875 0 0 0 11.95 0C5.412 0 .164 5.117 0 11.649a.704.704 0 0 0 .604.714l2.81.402a.704.704 0 0 0 .802-.706 7.738 7.738 0 0 1 10.762-7.222l-1.396 1.396a.704.704 0 0 0 .398 1.193l6.96.994c.459.07.862-.33.796-.796zm1.66 4.067l-2.808-.4c-.362-.047-.802.264-.802.756 0 4.265-3.47 7.734-7.735 7.734a7.744 7.744 0 0 1-3.014-.612l1.351-1.35a.704.704 0 0 0-.397-1.194l-6.96-.995a.705.705 0 0 0-.797.796l.995 6.96a.704.704 0 0 0 1.193.398L5.905 22.3A11.903 11.903 0 0 0 12.051 24 11.894 11.894 0 0 0 24 12.409a.704.704 0 0 0-.604-.718z"/></svg>
