<svg xmlns="http://www.w3.org/2000/svg" viewBox="0 0 24 24"><path d="M463.702 162.655L442.491 14.164c-1.744-12.174-16.707-17.233-25.459-8.481l-30.894 30.894C346.411 12.612 301.309 0 254.932 0 115.464 0 3.491 109.16.005 248.511c-.19 7.617 5.347 14.15 12.876 15.234l59.941 8.569c8.936 1.304 17.249-5.712 17.125-15.058C88.704 165.286 162.986 90 254.932 90c22.265 0 44.267 4.526 64.6 13.183l-29.78 29.78c-8.697 8.697-3.761 23.706 8.481 25.459l148.491 21.211c9.784 1.475 18.381-7.034 16.978-16.978zm35.415 86.757l-59.897-8.555c-7.738-.98-17.124 5.651-17.124 16.143 0 90.981-74.019 165-165 165a165.207 165.207 0 0 1-64.306-13.052l28.828-28.828c8.697-8.697 3.761-23.706-8.481-25.459L64.646 333.435c-9.753-1.393-18.39 6.971-16.978 16.978l21.21 148.492c1.746 12.187 16.696 17.212 25.459 8.481l31.641-31.626C165.514 499.505 210.587 512 257.096 512c138.794 0 250.752-108.618 254.897-247.28.22-7.632-5.317-14.224-12.876-15.308z"/></svg>
