<svg xmlns="http://www.w3.org/2000/svg" viewBox="0 0 24 24"><g><path d="M11.984 0A11.97 11.97 0 0 0 0 11.984a11.97 11.97 0 0 0 11.984 11.984 11.97 11.97 0 0 0 11.984-11.984A11.97 11.97 0 0 0 11.984 0zm0 21.98c-5.507 0-9.995-4.488-9.995-9.996s4.488-9.995 9.995-9.995c5.508 0 9.995 4.488 9.995 9.995 0 5.508-4.487 9.995-9.995 9.995z"/><path d="M12.035 9.18c-.56 0-1.02.458-1.02 1.02v8.26c0 .561.46 1.02 1.02 1.02.561 0 1.02-.459 1.02-.968v-8.313c0-.56-.459-1.02-1.02-1.02zm-.102-4.743c-.56 0-1.02.459-1.02 1.02v.968c0 .561.46 1.02 1.02 1.02.561 0 .969-.459 1.02-1.02v-.968c0-.561-.459-1.02-1.02-1.02z"/></g></svg>
