<svg xmlns="http://www.w3.org/2000/svg" viewBox="0 0 24 24"><path d="M9.167 13.875V9.5h1.75a.601.601 0 0 0 .583-.625c0-.288-.167-.434-.315-.625L8.583 4.89C8.401 4.652 8.26 4.5 8 4.5c-.26 0-.401.151-.583.39L4.815 8.25c-.148.19-.315.337-.315.625 0 .39.301.625.583.625h1.75v4.375c0 .344.263.625.584.625h1.166c.321 0 .584-.281.584-.625z"/><path d="M17.167 10.125V14.5h1.75c.282 0 .583.234.583.625 0 .288-.167.434-.315.625l-2.602 3.36c-.182.239-.323.39-.583.39-.26 0-.401-.151-.583-.39l-2.602-3.36c-.148-.19-.315-.337-.315-.625 0-.39.301-.625.583-.625h1.75v-4.375c0-.344.263-.625.584-.625h1.166c.321 0 .584.281.584.625z"/></svg>
